<svg xmlns="http://www.w3.org/2000/svg" viewBox="0 0 594.6756 55.1"><defs><style>.cls-1{isolation:isolate;}.cls-2{fill:#5e5f5f;}.cls-3{fill:#205589;}</style></defs><title>Asset 1ldpi</title><g id="Layer_2" data-name="Layer 2"><g id="Layer_1-2" data-name="Layer 1"><g class="cls-1"><path class="cls-2" d="M96.9173,26.7072V13.1691h1.8379L105.866,23.798V13.1691h1.7178V26.7072h-1.8374L98.6351,16.0686V26.7072Z"/><path class="cls-2" d="M116.7815,25.4973a6.18,6.18,0,0,1-1.7773,1.1084,5.128,5.128,0,0,1-1.832.3232,3.5679,3.5679,0,0,1-2.4854-.79,2.6051,2.6051,0,0,1-.8677-2.0176,2.676,2.676,0,0,1,.3277-1.3154,2.7091,2.7091,0,0,1,.8589-.9561,4.0307,4.0307,0,0,1,1.1958-.5449,11.8861,11.8861,0,0,1,1.4785-.249,15.1513,15.1513,0,0,0,2.9629-.5733c.0058-.2275.01-.3721.01-.4336a1.8334,1.8334,0,0,0-.4707-1.4316,2.787,2.787,0,0,0-1.8925-.5635,2.9343,2.9343,0,0,0-1.7325.4111,2.5053,2.5053,0,0,0-.8261,1.4541l-1.6255-.2216a4.0226,4.0226,0,0,1,.73-1.6846,3.1852,3.1852,0,0,1,1.4682-.9883,6.5422,6.5422,0,0,1,2.2266-.3467,5.8916,5.8916,0,0,1,2.041.2959,2.7117,2.7117,0,0,1,1.1543.7432,2.6067,2.6067,0,0,1,.5156,1.1309,9.19,9.19,0,0,1,.084,1.5332v2.2168A23.6794,23.6794,0,0,0,118.43,25.53a3.7313,3.7313,0,0,0,.42,1.1777h-1.7344A3.485,3.485,0,0,1,116.7815,25.4973Zm-.1386-3.7119a12.2352,12.2352,0,0,1-2.7149.6279,6.2866,6.2866,0,0,0-1.4492.332,1.4523,1.4523,0,0,0-.6562.54,1.47,1.47,0,0,0,.2734,1.8984,2.1651,2.1651,0,0,0,1.4727.4433,3.431,3.431,0,0,0,1.7089-.4209,2.59,2.59,0,0,0,1.0977-1.1494,3.9978,3.9978,0,0,0,.2676-1.6621Z"/><path class="cls-2" d="M124.53,25.22l.24,1.4688a6.156,6.156,0,0,1-1.2558.1474A2.8407,2.8407,0,0,1,122.11,26.55a1.5981,1.5981,0,0,1-.7012-.752,5.9518,5.9518,0,0,1-.2031-1.9628V18.1926h-1.22V16.9h1.22V14.4709l1.6523-.9971V16.9H124.53v1.293h-1.6719v5.7353a2.8936,2.8936,0,0,0,.0879.9141.6941.6941,0,0,0,.2861.3232,1.1086,1.1086,0,0,0,.5684.12A5.2877,5.2877,0,0,0,124.53,25.22Z"/><path class="cls-2" d="M126.1644,15.08V13.1691h1.6621V15.08Zm0,11.6269V16.9h1.6621v9.8076Z"/><path class="cls-2" d="M129.7386,21.8039a5.0555,5.0555,0,0,1,1.5146-4.0361,4.5625,4.5625,0,0,1,3.084-1.09,4.4028,4.4028,0,0,1,3.3066,1.3252,5.0444,5.0444,0,0,1,1.2833,3.6621,6.4811,6.4811,0,0,1-.5674,2.9776,4.0158,4.0158,0,0,1-1.6534,1.6855,4.81,4.81,0,0,1-2.3691.6006,4.4114,4.4114,0,0,1-3.3291-1.32A5.2744,5.2744,0,0,1,129.7386,21.8039Zm1.709,0a4.1785,4.1785,0,0,0,.8212,2.8213,2.738,2.738,0,0,0,4.128-.0049,4.2762,4.2762,0,0,0,.8222-2.8721,4.0539,4.0539,0,0,0-.8261-2.7568,2.7412,2.7412,0,0,0-4.1241-.0049A4.16,4.16,0,0,0,131.4476,21.8039Z"/><path class="cls-2" d="M140.8763,26.7072V16.9h1.4961v1.3945a3.5252,3.5252,0,0,1,3.1211-1.6162,4.1017,4.1017,0,0,1,1.63.3184,2.5769,2.5769,0,0,1,1.1133.8359,3.2159,3.2159,0,0,1,.5166,1.2285,9.5135,9.5135,0,0,1,.0928,1.6163v6.03h-1.6621V20.7414a4.4919,4.4919,0,0,0-.1943-1.5195,1.5954,1.5954,0,0,0-.6885-.8028,2.1841,2.1841,0,0,0-1.1582-.3007,2.6975,2.6975,0,0,0-1.834.6748,3.3257,3.3257,0,0,0-.77,2.5576v5.3564Z"/><path class="cls-2" d="M157.7942,25.4973a6.1929,6.1929,0,0,1-1.7773,1.1084,5.1335,5.1335,0,0,1-1.833.3232,3.5645,3.5645,0,0,1-2.4844-.79,2.6038,2.6038,0,0,1-.8682-2.0176,2.7376,2.7376,0,0,1,1.1866-2.2715,4.0279,4.0279,0,0,1,1.1963-.5449,11.8972,11.8972,0,0,1,1.4775-.249,15.1808,15.1808,0,0,0,2.9639-.5733c.0058-.2275.01-.3721.01-.4336a1.8339,1.8339,0,0,0-.4716-1.4316,2.7841,2.7841,0,0,0-1.8926-.5635,2.9305,2.9305,0,0,0-1.7315.4111,2.5113,2.5113,0,0,0-.8271,1.4541l-1.625-.2216a4.0163,4.0163,0,0,1,.73-1.6846,3.19,3.19,0,0,1,1.4687-.9883,6.5326,6.5326,0,0,1,2.2256-.3467,5.8877,5.8877,0,0,1,2.041.2959,2.6991,2.6991,0,0,1,1.1543.7432,2.6192,2.6192,0,0,1,.5166,1.1309,9.3367,9.3367,0,0,1,.083,1.5332v2.2168a23.5984,23.5984,0,0,0,.1065,2.9316,3.7092,3.7092,0,0,0,.42,1.1777h-1.7354A3.5068,3.5068,0,0,1,157.7942,25.4973Zm-.1386-3.7119a12.2352,12.2352,0,0,1-2.7149.6279,6.2983,6.2983,0,0,0-1.45.332,1.4443,1.4443,0,0,0-.6552.54,1.4681,1.4681,0,0,0,.2724,1.8984,2.1669,2.1669,0,0,0,1.4727.4433,3.4289,3.4289,0,0,0,1.709-.4209,2.5922,2.5922,0,0,0,1.0986-1.1494,4.0143,4.0143,0,0,0,.2676-1.6621Z"/><path class="cls-2" d="M161.8763,26.7072V13.1691h1.6621V26.7072Z"/><path class="cls-2" d="M171.887,26.7072V13.1691h1.792V26.7072Z"/><path class="cls-2" d="M176.6253,26.7072V16.9h1.4961v1.3945a3.5252,3.5252,0,0,1,3.1211-1.6162,4.1026,4.1026,0,0,1,1.63.3184,2.5771,2.5771,0,0,1,1.1132.8359,3.2159,3.2159,0,0,1,.5166,1.2285,9.5027,9.5027,0,0,1,.0928,1.6163v6.03h-1.6621V20.7414a4.4919,4.4919,0,0,0-.1943-1.5195,1.5949,1.5949,0,0,0-.6885-.8028,2.1839,2.1839,0,0,0-1.1582-.3007,2.6977,2.6977,0,0,0-1.834.6748,3.3257,3.3257,0,0,0-.77,2.5576v5.3564Z"/><path class="cls-2" d="M186.4788,23.78l1.6436-.2588a2.2976,2.2976,0,0,0,.7714,1.5147,2.6823,2.6823,0,0,0,1.7686.5263,2.6031,2.6031,0,0,0,1.6992-.4658,1.3946,1.3946,0,0,0,.5537-1.0947,1.011,1.011,0,0,0-.4892-.8867,7.2134,7.2134,0,0,0-1.6992-.5625,15.5956,15.5956,0,0,1-2.5352-.7989,2.4231,2.4231,0,0,1-1.4365-2.249,2.5272,2.5272,0,0,1,.3008-1.2148,2.694,2.694,0,0,1,.8173-.9278,3.4409,3.4409,0,0,1,1.0577-.4853,5.0418,5.0418,0,0,1,1.4355-.1983,5.6792,5.6792,0,0,1,2.0273.333,2.7478,2.7478,0,0,1,1.2881.9,3.5079,3.5079,0,0,1,.5723,1.5186l-1.625.2217a1.78,1.78,0,0,0-.6416-1.1817,2.3494,2.3494,0,0,0-1.501-.4248,2.7214,2.7214,0,0,0-1.6347.3779,1.1046,1.1046,0,0,0-.4893.8868.915.915,0,0,0,.2031.582,1.469,1.469,0,0,0,.6367.4434q.25.0922,1.4688.4248a20.2973,20.2973,0,0,1,2.4609.7714,2.49,2.49,0,0,1,1.0948.8721,2.44,2.44,0,0,1,.3974,1.4229,2.789,2.789,0,0,1-.4853,1.5644,3.1311,3.1311,0,0,1-1.3994,1.1367,5.095,5.095,0,0,1-2.0684.4014,4.6058,4.6058,0,0,1-2.9131-.7939A3.6888,3.6888,0,0,1,186.4788,23.78Z"/><path class="cls-2" d="M200.23,25.22l.24,1.4688a6.1568,6.1568,0,0,1-1.2558.1474A2.8407,2.8407,0,0,1,197.81,26.55a1.5981,1.5981,0,0,1-.7012-.752,5.949,5.949,0,0,1-.2031-1.9628V18.1926h-1.22V16.9h1.22V14.4709l1.6523-.9971V16.9H200.23v1.293h-1.6719v5.7353a2.8936,2.8936,0,0,0,.0879.9141.6941.6941,0,0,0,.2861.3232,1.1084,1.1084,0,0,0,.5684.12A5.2877,5.2877,0,0,0,200.23,25.22Z"/><path class="cls-2" d="M201.8636,15.08V13.1691h1.6621V15.08Zm0,11.6269V16.9h1.6621v9.8076Z"/><path class="cls-2" d="M209.6858,25.22l.24,1.4688a6.1569,6.1569,0,0,1-1.2559.1474,2.841,2.841,0,0,1-1.4043-.2861,1.5986,1.5986,0,0,1-.7012-.752,5.9518,5.9518,0,0,1-.2031-1.9628V18.1926h-1.22V16.9h1.22V14.4709l1.6524-.9971V16.9h1.6718v1.293H208.014v5.7353a2.8936,2.8936,0,0,0,.0879.9141.6936.6936,0,0,0,.2861.3232,1.1082,1.1082,0,0,0,.5683.12A5.2864,5.2864,0,0,0,209.6858,25.22Z"/><path class="cls-2" d="M217.7386,26.7072v-1.44a3.5879,3.5879,0,0,1-3.1114,1.6621,3.9814,3.9814,0,0,1-1.621-.332,2.6719,2.6719,0,0,1-1.1172-.836,3.1381,3.1381,0,0,1-.5127-1.2334,8.3687,8.3687,0,0,1-.1016-1.5507V16.9h1.6621v5.4395a9.726,9.726,0,0,0,.1016,1.7548,1.7318,1.7318,0,0,0,.665,1.0293,2.0556,2.0556,0,0,0,1.2559.3741,2.7383,2.7383,0,0,0,1.4033-.3828,2.132,2.132,0,0,0,.9287-1.044,5.2373,5.2373,0,0,0,.2725-1.916V16.9h1.6621v9.8076Z"/><path class="cls-2" d="M225.4593,25.22l.24,1.4688a6.1568,6.1568,0,0,1-1.2558.1474,2.8407,2.8407,0,0,1-1.4043-.2861,1.5976,1.5976,0,0,1-.7012-.752,5.949,5.949,0,0,1-.2031-1.9628V18.1926h-1.22V16.9h1.22V14.4709l1.6523-.9971V16.9h1.6719v1.293h-1.6719v5.7353a2.8936,2.8936,0,0,0,.0879.9141.6941.6941,0,0,0,.2861.3232,1.1084,1.1084,0,0,0,.5684.12A5.2877,5.2877,0,0,0,225.4593,25.22Z"/><path class="cls-2" d="M233.7991,23.549l1.7178.2119a4.1979,4.1979,0,0,1-1.5059,2.337,5.1,5.1,0,0,1-6.22-.4942,5.18,5.18,0,0,1-1.2607-3.7168,5.4187,5.4187,0,0,1,1.2744-3.8418,4.3155,4.3155,0,0,1,3.3066-1.3672,4.1932,4.1932,0,0,1,3.2139,1.3389,5.3226,5.3226,0,0,1,1.2461,3.7686c0,.0986-.0029.246-.0088.4433h-7.3145a3.7683,3.7683,0,0,0,.9141,2.4746,2.7222,2.7222,0,0,0,2.0508.8584,2.541,2.541,0,0,0,1.56-.4795A3.1929,3.1929,0,0,0,233.7991,23.549Zm-5.458-2.6875h5.4766a3.3272,3.3272,0,0,0-.6289-1.8564,2.5482,2.5482,0,0,0-2.0586-.96,2.6387,2.6387,0,0,0-1.9258.7666A3.0285,3.0285,0,0,0,228.3411,20.8615Z"/><path class="cls-2" d="M242.24,21.8039a5.0551,5.0551,0,0,1,1.5146-4.0361,4.5623,4.5623,0,0,1,3.084-1.09,4.4028,4.4028,0,0,1,3.3066,1.3252,5.0443,5.0443,0,0,1,1.2832,3.6621,6.48,6.48,0,0,1-.5674,2.9776,4.0156,4.0156,0,0,1-1.6533,1.6855,4.8107,4.8107,0,0,1-2.3691.6006,4.4114,4.4114,0,0,1-3.3291-1.32A5.2744,5.2744,0,0,1,242.24,21.8039Zm1.7089,0a4.1785,4.1785,0,0,0,.8213,2.8213,2.738,2.738,0,0,0,4.128-.0049,4.2762,4.2762,0,0,0,.8222-2.8721,4.0539,4.0539,0,0,0-.8262-2.7568,2.7411,2.7411,0,0,0-4.124-.0049A4.16,4.16,0,0,0,243.9485,21.8039Z"/><path class="cls-2" d="M253.7737,26.7072V18.1926H252.306V16.9h1.4677V15.8557a4.56,4.56,0,0,1,.1758-1.4678,2.131,2.131,0,0,1,.8447-1.0488,3.05,3.05,0,0,1,1.6954-.4014,8.1713,8.1713,0,0,1,1.5507.166l-.249,1.45a5.5838,5.5838,0,0,0-.9785-.0928,1.4587,1.4587,0,0,0-1.0713.3233,1.75,1.75,0,0,0-.3144,1.21V16.9h1.9121v1.293h-1.9121v8.5146Z"/><path class="cls-2" d="M264.0247,26.7072V13.1691h5.08a6.296,6.296,0,0,1,2.4883.41,3.2075,3.2075,0,0,1,1.4687,1.2656,3.34,3.34,0,0,1,.5313,1.7871,3.0707,3.0707,0,0,1-.4717,1.6348A3.3662,3.3662,0,0,1,271.7,19.5041a3.5375,3.5375,0,0,1,1.8887,1.2285,3.2858,3.2858,0,0,1,.66,2.05,3.9587,3.9587,0,0,1-.4013,1.7686,3.4406,3.4406,0,0,1-.9932,1.2607,4.138,4.138,0,0,1-1.4824.669,8.9883,8.9883,0,0,1-2.1836.2265Zm1.792-7.85h2.9277a6.5339,6.5339,0,0,0,1.708-.1572,1.9054,1.9054,0,0,0,1.03-.6738,1.9459,1.9459,0,0,0,.3457-1.1827,2.1746,2.1746,0,0,0-.3232-1.1865,1.6381,1.6381,0,0,0-.9229-.7021,7.7333,7.7333,0,0,0-2.0595-.1885h-2.7061Zm0,6.252h3.3711a7.78,7.78,0,0,0,1.2187-.0645,2.94,2.94,0,0,0,1.0342-.3691,1.9671,1.9671,0,0,0,.6836-.753,2.3542,2.3542,0,0,0,.2676-1.1406,2.2505,2.2505,0,0,0-.3877-1.3164,2.0447,2.0447,0,0,0-1.0762-.7842,6.65,6.65,0,0,0-1.98-.2265h-3.1309Z"/><path class="cls-2" d="M276.51,15.08V13.1691h1.6621V15.08Zm0,11.6269V16.9h1.6621v9.8076Z"/><path class="cls-2" d="M280.0843,21.8039a5.0555,5.0555,0,0,1,1.5146-4.0361,4.5625,4.5625,0,0,1,3.084-1.09,4.4032,4.4032,0,0,1,3.3067,1.3252,5.0448,5.0448,0,0,1,1.2832,3.6621,6.4811,6.4811,0,0,1-.5674,2.9776,4.0162,4.0162,0,0,1-1.6533,1.6855,4.8111,4.8111,0,0,1-2.3692.6006,4.4114,4.4114,0,0,1-3.3291-1.32A5.2744,5.2744,0,0,1,280.0843,21.8039Zm1.709,0a4.178,4.178,0,0,0,.8213,2.8213,2.7379,2.7379,0,0,0,4.1279-.0049,4.2762,4.2762,0,0,0,.8222-2.8721,4.0539,4.0539,0,0,0-.8261-2.7568,2.7411,2.7411,0,0,0-4.124-.0049A4.16,4.16,0,0,0,281.7933,21.8039Z"/><path class="cls-2" d="M291.222,26.7072V16.9h1.4863v1.376a3.5,3.5,0,0,1,1.2285-1.1592,3.4543,3.4543,0,0,1,1.7451-.4385,3.2337,3.2337,0,0,1,1.7871.4522,2.4192,2.4192,0,0,1,.9834,1.2656,3.521,3.521,0,0,1,3.0293-1.7178,2.9853,2.9853,0,0,1,2.2442.8086,3.4513,3.4513,0,0,1,.7851,2.4883v6.7324h-1.6533V20.53a4.5674,4.5674,0,0,0-.1611-1.4365,1.3928,1.3928,0,0,0-.5869-.7061,1.8284,1.8284,0,0,0-.9971-.2685,2.32,2.32,0,0,0-1.7178.6884,3.0278,3.0278,0,0,0-.6836,2.2022v5.6982h-1.6621v-6.372a2.8048,2.8048,0,0,0-.4062-1.6622,1.539,1.539,0,0,0-1.33-.5546,2.42,2.42,0,0,0-1.2979.37,2.099,2.099,0,0,0-.8632,1.08,6.0766,6.0766,0,0,0-.2676,2.05v5.0888Z"/><path class="cls-2" d="M313.6912,23.549l1.7178.2119a4.1984,4.1984,0,0,1-1.5059,2.337,5.1,5.1,0,0,1-6.22-.4942,5.18,5.18,0,0,1-1.2607-3.7168,5.4187,5.4187,0,0,1,1.2744-3.8418,4.3155,4.3155,0,0,1,3.3066-1.3672,4.1932,4.1932,0,0,1,3.2139,1.3389,5.3226,5.3226,0,0,1,1.2461,3.7686c0,.0986-.003.246-.0088.4433H308.14a3.7678,3.7678,0,0,0,.9141,2.4746,2.722,2.722,0,0,0,2.0508.8584,2.5412,2.5412,0,0,0,1.56-.4795A3.1929,3.1929,0,0,0,313.6912,23.549Zm-5.458-2.6875H313.71a3.3279,3.3279,0,0,0-.6289-1.8564,2.5482,2.5482,0,0,0-2.0586-.96,2.6387,2.6387,0,0,0-1.9258.7666A3.0285,3.0285,0,0,0,308.2332,20.8615Z"/><path class="cls-2" d="M323.8582,26.7072V25.47a3.05,3.05,0,0,1-2.7422,1.459,3.8458,3.8458,0,0,1-2.1562-.6465,4.2489,4.2489,0,0,1-1.5244-1.8056,6.2339,6.2339,0,0,1-.54-2.6641,6.9744,6.9744,0,0,1,.4893-2.6641,3.8528,3.8528,0,0,1,1.4687-1.833,3.9249,3.9249,0,0,1,2.1885-.6377,3.2714,3.2714,0,0,1,2.7061,1.3487V13.1691h1.6533V26.7072Zm-5.2549-4.8945a4.2532,4.2532,0,0,0,.7949,2.8164,2.3932,2.3932,0,0,0,1.8741.9326,2.3512,2.3512,0,0,0,1.8515-.8906,4.1053,4.1053,0,0,0,.7627-2.72,4.61,4.61,0,0,0-.7763-2.9551,2.3856,2.3856,0,0,0-1.9112-.9424,2.3016,2.3016,0,0,0-1.8515.9053A4.464,4.464,0,0,0,318.6033,21.8127Z"/><path class="cls-2" d="M328.0242,15.08V13.1691h1.6621V15.08Zm0,11.6269V16.9h1.6621v9.8076Z"/><path class="cls-2" d="M338.616,23.1145l1.6348.2128a4.2393,4.2393,0,0,1-1.3711,2.6456,3.9958,3.9958,0,0,1-2.711.956,4.2082,4.2082,0,0,1-3.2363-1.3164,5.3359,5.3359,0,0,1-1.2236-3.7725,6.814,6.814,0,0,1,.5264-2.7793,3.6722,3.6722,0,0,1,1.6015-1.7871,4.7544,4.7544,0,0,1,2.3418-.5957,4.07,4.07,0,0,1,2.6133.8086,3.7037,3.7037,0,0,1,1.3018,2.2949l-1.6163.2491a2.6778,2.6778,0,0,0-.8173-1.4873,2.115,2.115,0,0,0-1.417-.4981,2.5786,2.5786,0,0,0-2.041.9,4.2714,4.2714,0,0,0-.7852,2.8486,4.4177,4.4177,0,0,0,.7568,2.8721,2.4635,2.4635,0,0,0,1.9766.8955,2.3294,2.3294,0,0,0,1.6348-.6A2.9808,2.9808,0,0,0,338.616,23.1145Z"/><path class="cls-2" d="M348.073,25.4973a6.1929,6.1929,0,0,1-1.7773,1.1084,5.1335,5.1335,0,0,1-1.833.3232,3.5645,3.5645,0,0,1-2.4844-.79,2.6038,2.6038,0,0,1-.8681-2.0176,2.7372,2.7372,0,0,1,1.1865-2.2715,4.0279,4.0279,0,0,1,1.1963-.5449,11.8972,11.8972,0,0,1,1.4775-.249,15.1808,15.1808,0,0,0,2.9639-.5733c.0058-.2275.01-.3721.01-.4336a1.8339,1.8339,0,0,0-.4716-1.4316,2.7839,2.7839,0,0,0-1.8926-.5635,2.9307,2.9307,0,0,0-1.7315.4111,2.5113,2.5113,0,0,0-.8271,1.4541l-1.625-.2216a4.0163,4.0163,0,0,1,.73-1.6846,3.19,3.19,0,0,1,1.4687-.9883,6.5326,6.5326,0,0,1,2.2256-.3467,5.8877,5.8877,0,0,1,2.041.2959,2.6991,2.6991,0,0,1,1.1543.7432,2.6192,2.6192,0,0,1,.5166,1.1309,9.3367,9.3367,0,0,1,.083,1.5332v2.2168a23.5984,23.5984,0,0,0,.1065,2.9316,3.7092,3.7092,0,0,0,.42,1.1777h-1.7353A3.5046,3.5046,0,0,1,348.073,25.4973Zm-.1386-3.7119a12.2352,12.2352,0,0,1-2.7149.6279,6.2983,6.2983,0,0,0-1.45.332,1.4443,1.4443,0,0,0-.6552.54,1.4681,1.4681,0,0,0,.2724,1.8984,2.1669,2.1669,0,0,0,1.4727.4433,3.4289,3.4289,0,0,0,1.709-.4209,2.5922,2.5922,0,0,0,1.0986-1.1494,4.0143,4.0143,0,0,0,.2676-1.6621Z"/><path class="cls-2" d="M352.1551,26.7072V13.1691h1.6621V26.7072Z"/><path class="cls-2" d="M362.1658,26.7072V13.1691h1.792V26.7072Z"/><path class="cls-2" d="M366.9031,26.7072V16.9H368.39v1.376a3.4992,3.4992,0,0,1,1.2285-1.1592,3.4537,3.4537,0,0,1,1.7451-.4385,3.2339,3.2339,0,0,1,1.7871.4522,2.42,2.42,0,0,1,.9834,1.2656,3.5209,3.5209,0,0,1,3.0293-1.7178,2.9851,2.9851,0,0,1,2.2441.8086,3.4509,3.4509,0,0,1,.7852,2.4883v6.7324h-1.6533V20.53a4.5638,4.5638,0,0,0-.1612-1.4365,1.3928,1.3928,0,0,0-.5869-.7061,1.8282,1.8282,0,0,0-.9971-.2685,2.32,2.32,0,0,0-1.7177.6884,3.0274,3.0274,0,0,0-.6836,2.2022v5.6982H372.73v-6.372a2.8048,2.8048,0,0,0-.4063-1.6622,1.5389,1.5389,0,0,0-1.33-.5546,2.42,2.42,0,0,0-1.2978.37,2.0986,2.0986,0,0,0-.8633,1.08,6.0792,6.0792,0,0,0-.2676,2.05v5.0888Z"/><path class="cls-2" d="M389.0574,25.4973a6.1929,6.1929,0,0,1-1.7773,1.1084,5.1335,5.1335,0,0,1-1.833.3232,3.5643,3.5643,0,0,1-2.4844-.79,2.6038,2.6038,0,0,1-.8682-2.0176,2.7376,2.7376,0,0,1,1.1866-2.2715,4.0284,4.0284,0,0,1,1.1962-.5449,11.9029,11.9029,0,0,1,1.4776-.249,15.1778,15.1778,0,0,0,2.9638-.5733c.0059-.2275.01-.3721.01-.4336a1.8335,1.8335,0,0,0-.4717-1.4316,2.7836,2.7836,0,0,0-1.8925-.5635,2.9305,2.9305,0,0,0-1.7315.4111,2.5113,2.5113,0,0,0-.8271,1.4541l-1.625-.2216a4.0163,4.0163,0,0,1,.73-1.6846,3.19,3.19,0,0,1,1.4687-.9883,6.5322,6.5322,0,0,1,2.2256-.3467,5.8877,5.8877,0,0,1,2.041.2959A2.7,2.7,0,0,1,390,17.717a2.6192,2.6192,0,0,1,.5166,1.1309,9.3367,9.3367,0,0,1,.083,1.5332v2.2168a23.5774,23.5774,0,0,0,.1065,2.9316,3.7068,3.7068,0,0,0,.42,1.1777H389.39A3.5046,3.5046,0,0,1,389.0574,25.4973Zm-.1387-3.7119a12.2354,12.2354,0,0,1-2.7148.6279,6.2983,6.2983,0,0,0-1.45.332,1.4451,1.4451,0,0,0-.6553.54,1.4683,1.4683,0,0,0,.2725,1.8984,2.1669,2.1669,0,0,0,1.4727.4433,3.4283,3.4283,0,0,0,1.7089-.4209,2.5919,2.5919,0,0,0,1.0987-1.1494,4.0145,4.0145,0,0,0,.2675-1.6621Z"/><path class="cls-2" d="M392.8729,27.52l1.6152.24a1.5417,1.5417,0,0,0,.5635,1.09,2.7719,2.7719,0,0,0,1.69.4619,2.97,2.97,0,0,0,1.7822-.4619,2.27,2.27,0,0,0,.85-1.293,10.65,10.65,0,0,0,.12-2.1328,3.42,3.42,0,0,1-2.7148,1.2832,3.701,3.701,0,0,1-3.1309-1.459,5.6166,5.6166,0,0,1-1.1084-3.5,6.5119,6.5119,0,0,1,.5079-2.5908,4.0634,4.0634,0,0,1,1.4736-1.833,3.9755,3.9755,0,0,1,2.2666-.6465,3.5174,3.5174,0,0,1,2.8633,1.4033V16.9h1.5332v8.4775a8.0428,8.0428,0,0,1-.4668,3.2461,3.4065,3.4065,0,0,1-1.4776,1.51,5.1128,5.1128,0,0,1-2.4892.5547,4.6941,4.6941,0,0,1-2.835-.79A2.67,2.67,0,0,1,392.8729,27.52Zm1.3759-5.8916a4.2489,4.2489,0,0,0,.7666,2.8164,2.5275,2.5275,0,0,0,3.8408.0049,4.1133,4.1133,0,0,0,.7764-2.7656,4.024,4.024,0,0,0-.7988-2.7158,2.472,2.472,0,0,0-1.9258-.9141,2.4,2.4,0,0,0-1.8838.9A3.9967,3.9967,0,0,0,394.2488,21.6281Z"/><path class="cls-2" d="M403.7049,15.08V13.1691h1.6621V15.08Zm0,11.6269V16.9h1.6621v9.8076Z"/><path class="cls-2" d="M407.8973,26.7072V16.9h1.4961v1.3945a3.5252,3.5252,0,0,1,3.1211-1.6162,4.1017,4.1017,0,0,1,1.63.3184,2.5775,2.5775,0,0,1,1.1133.8359,3.2159,3.2159,0,0,1,.5166,1.2285,9.5135,9.5135,0,0,1,.0928,1.6163v6.03h-1.6621V20.7414a4.4889,4.4889,0,0,0-.1944-1.5195,1.5952,1.5952,0,0,0-.6884-.8028,2.1841,2.1841,0,0,0-1.1582-.3007,2.6975,2.6975,0,0,0-1.834.6748,3.3257,3.3257,0,0,0-.7705,2.5576v5.3564Z"/><path class="cls-2" d="M418.1111,27.52l1.6153.24a1.542,1.542,0,0,0,.5634,1.09,2.7724,2.7724,0,0,0,1.69.4619,2.97,2.97,0,0,0,1.7822-.4619,2.2707,2.2707,0,0,0,.85-1.293,10.6583,10.6583,0,0,0,.12-2.1328,3.42,3.42,0,0,1-2.7148,1.2832,3.7009,3.7009,0,0,1-3.1309-1.459,5.6166,5.6166,0,0,1-1.1084-3.5,6.5136,6.5136,0,0,1,.5078-2.5908,4.0643,4.0643,0,0,1,1.4737-1.833,3.9752,3.9752,0,0,1,2.2666-.6465,3.5174,3.5174,0,0,1,2.8633,1.4033V16.9h1.5332v8.4775a8.0428,8.0428,0,0,1-.4668,3.2461,3.407,3.407,0,0,1-1.4776,1.51,5.1128,5.1128,0,0,1-2.4892.5547,4.6939,4.6939,0,0,1-2.835-.79A2.67,2.67,0,0,1,418.1111,27.52Zm1.376-5.8916a4.2489,4.2489,0,0,0,.7666,2.8164,2.5275,2.5275,0,0,0,3.8408.0049,4.1133,4.1133,0,0,0,.7764-2.7656,4.024,4.024,0,0,0-.7988-2.7158,2.472,2.472,0,0,0-1.9258-.9141,2.4,2.4,0,0,0-1.8838.9A3.9967,3.9967,0,0,0,419.4871,21.6281Z"/><path class="cls-2" d="M440.5887,25.4973a6.1933,6.1933,0,0,1-1.7774,1.1084,5.1331,5.1331,0,0,1-1.833.3232,3.5647,3.5647,0,0,1-2.4844-.79,2.6038,2.6038,0,0,1-.8681-2.0176,2.7372,2.7372,0,0,1,1.1865-2.2715,4.0279,4.0279,0,0,1,1.1963-.5449,11.904,11.904,0,0,1,1.4775-.249,15.1808,15.1808,0,0,0,2.9639-.5733c.0059-.2275.01-.3721.01-.4336a1.8339,1.8339,0,0,0-.4717-1.4316,2.7839,2.7839,0,0,0-1.8926-.5635,2.93,2.93,0,0,0-1.7314.4111,2.5108,2.5108,0,0,0-.8272,1.4541l-1.625-.2216a4.0175,4.0175,0,0,1,.7295-1.6846,3.19,3.19,0,0,1,1.4688-.9883,6.5316,6.5316,0,0,1,2.2255-.3467,5.8883,5.8883,0,0,1,2.0411.2959,2.7,2.7,0,0,1,1.1543.7432,2.6216,2.6216,0,0,1,.5166,1.1309,9.3483,9.3483,0,0,1,.083,1.5332v2.2168a23.6065,23.6065,0,0,0,.1064,2.9316,3.7092,3.7092,0,0,0,.42,1.1777h-1.7353A3.5024,3.5024,0,0,1,440.5887,25.4973Zm-.1387-3.7119a12.2354,12.2354,0,0,1-2.7148.6279,6.2983,6.2983,0,0,0-1.45.332,1.4446,1.4446,0,0,0-.6553.54,1.4681,1.4681,0,0,0,.2724,1.8984,2.1669,2.1669,0,0,0,1.4727.4433,3.4287,3.4287,0,0,0,1.709-.4209,2.5922,2.5922,0,0,0,1.0986-1.1494,4.0143,4.0143,0,0,0,.2676-1.6621Z"/><path class="cls-2" d="M444.7088,26.7072V16.9h1.4961v1.3945a3.5252,3.5252,0,0,1,3.1211-1.6162,4.1026,4.1026,0,0,1,1.63.3184,2.5771,2.5771,0,0,1,1.1132.8359,3.2159,3.2159,0,0,1,.5166,1.2285,9.5027,9.5027,0,0,1,.0928,1.6163v6.03h-1.6621V20.7414a4.4919,4.4919,0,0,0-.1943-1.5195,1.5949,1.5949,0,0,0-.6885-.8028,2.1841,2.1841,0,0,0-1.1582-.3007,2.6977,2.6977,0,0,0-1.834.6748,3.3257,3.3257,0,0,0-.77,2.5576v5.3564Z"/><path class="cls-2" d="M461.59,26.7072V25.47a3.05,3.05,0,0,1-2.7421,1.459,3.8461,3.8461,0,0,1-2.1563-.6465,4.25,4.25,0,0,1-1.5244-1.8056,6.2339,6.2339,0,0,1-.54-2.6641,6.9744,6.9744,0,0,1,.4892-2.6641,3.853,3.853,0,0,1,1.4688-1.833,3.9244,3.9244,0,0,1,2.1884-.6377,3.2714,3.2714,0,0,1,2.7061,1.3487V13.1691h1.6533V26.7072Zm-5.2548-4.8945a4.2526,4.2526,0,0,0,.7949,2.8164,2.3931,2.3931,0,0,0,1.874.9326,2.3512,2.3512,0,0,0,1.8516-.8906,4.1053,4.1053,0,0,0,.7627-2.72,4.6094,4.6094,0,0,0-.7764-2.9551,2.3855,2.3855,0,0,0-1.9111-.9424,2.3016,2.3016,0,0,0-1.8516.9053A4.4641,4.4641,0,0,0,456.3348,21.8127Z"/><path class="cls-2" d="M471.1385,26.7072V13.1691h5.08a6.2958,6.2958,0,0,1,2.4882.41,3.2077,3.2077,0,0,1,1.4688,1.2656,3.34,3.34,0,0,1,.5312,1.7871,3.0706,3.0706,0,0,1-.4716,1.6348,3.3662,3.3662,0,0,1-1.4219,1.2373,3.5383,3.5383,0,0,1,1.8887,1.2285,3.2858,3.2858,0,0,1,.66,2.05,3.9588,3.9588,0,0,1-.4014,1.7686,3.44,3.44,0,0,1-.9931,1.2607,4.1388,4.1388,0,0,1-1.4824.669,8.9883,8.9883,0,0,1-2.1836.2265Zm1.792-7.85h2.9277a6.5344,6.5344,0,0,0,1.708-.1572,1.9058,1.9058,0,0,0,1.03-.6738,1.9459,1.9459,0,0,0,.3457-1.1827,2.1738,2.1738,0,0,0-.3233-1.1865,1.6376,1.6376,0,0,0-.9228-.7021,7.7337,7.7337,0,0,0-2.06-.1885h-2.706Zm0,6.252h3.3711a7.7806,7.7806,0,0,0,1.2187-.0645,2.9415,2.9415,0,0,0,1.0342-.3691,1.9679,1.9679,0,0,0,.6836-.753,2.3542,2.3542,0,0,0,.2676-1.1406,2.2505,2.2505,0,0,0-.3877-1.3164,2.0447,2.0447,0,0,0-1.0762-.7842,6.65,6.65,0,0,0-1.9805-.2265h-3.1308Z"/><path class="cls-2" d="M483.6238,15.08V13.1691h1.6621V15.08Zm0,11.6269V16.9h1.6621v9.8076Z"/><path class="cls-2" d="M487.198,21.8039a5.0552,5.0552,0,0,1,1.5147-4.0361,4.5623,4.5623,0,0,1,3.084-1.09,4.4028,4.4028,0,0,1,3.3066,1.3252,5.0443,5.0443,0,0,1,1.2832,3.6621,6.4811,6.4811,0,0,1-.5674,2.9776,4.0156,4.0156,0,0,1-1.6533,1.6855,4.8107,4.8107,0,0,1-2.3691.6006,4.4114,4.4114,0,0,1-3.3291-1.32A5.2744,5.2744,0,0,1,487.198,21.8039Zm1.709,0a4.1785,4.1785,0,0,0,.8213,2.8213,2.7379,2.7379,0,0,0,4.1279-.0049,4.2757,4.2757,0,0,0,.8223-2.8721,4.0539,4.0539,0,0,0-.8262-2.7568,2.7411,2.7411,0,0,0-4.124-.0049A4.16,4.16,0,0,0,488.907,21.8039Z"/><path class="cls-2" d="M505.05,23.549l1.7178.2119a4.1984,4.1984,0,0,1-1.5059,2.337,5.1,5.1,0,0,1-6.22-.4942,5.18,5.18,0,0,1-1.2607-3.7168,5.4187,5.4187,0,0,1,1.2744-3.8418,4.3155,4.3155,0,0,1,3.3066-1.3672,4.1932,4.1932,0,0,1,3.2139,1.3389,5.3226,5.3226,0,0,1,1.2461,3.7686c0,.0986-.003.246-.0088.4433h-7.3145a3.7678,3.7678,0,0,0,.9141,2.4746,2.722,2.722,0,0,0,2.0508.8584,2.5412,2.5412,0,0,0,1.56-.4795A3.1929,3.1929,0,0,0,505.05,23.549Zm-5.458-2.6875h5.4766a3.3279,3.3279,0,0,0-.6289-1.8564,2.5482,2.5482,0,0,0-2.0586-.96,2.6387,2.6387,0,0,0-1.9258.7666A3.0285,3.0285,0,0,0,499.5916,20.8615Z"/><path class="cls-2" d="M508.8543,26.7072V16.9H510.35v1.3945a3.5252,3.5252,0,0,1,3.1211-1.6162,4.1026,4.1026,0,0,1,1.63.3184,2.5771,2.5771,0,0,1,1.1132.8359,3.2159,3.2159,0,0,1,.5166,1.2285,9.5027,9.5027,0,0,1,.0928,1.6163v6.03h-1.6621V20.7414a4.4919,4.4919,0,0,0-.1943-1.5195,1.5949,1.5949,0,0,0-.6885-.8028,2.1839,2.1839,0,0,0-1.1582-.3007,2.6977,2.6977,0,0,0-1.834.6748,3.3257,3.3257,0,0,0-.7705,2.5576v5.3564Z"/><path class="cls-2" d="M519.0691,27.52l1.6153.24a1.5417,1.5417,0,0,0,.5635,1.09,2.7719,2.7719,0,0,0,1.69.4619,2.97,2.97,0,0,0,1.7822-.4619,2.27,2.27,0,0,0,.85-1.293,10.65,10.65,0,0,0,.12-2.1328,3.42,3.42,0,0,1-2.7148,1.2832,3.701,3.701,0,0,1-3.1309-1.459,5.6166,5.6166,0,0,1-1.1084-3.5,6.5136,6.5136,0,0,1,.5078-2.5908,4.0643,4.0643,0,0,1,1.4737-1.833,3.9755,3.9755,0,0,1,2.2666-.6465,3.5174,3.5174,0,0,1,2.8633,1.4033V16.9h1.5332v8.4775a8.0428,8.0428,0,0,1-.4668,3.2461,3.4065,3.4065,0,0,1-1.4776,1.51,5.1128,5.1128,0,0,1-2.4892.5547,4.6939,4.6939,0,0,1-2.835-.79A2.67,2.67,0,0,1,519.0691,27.52Zm1.376-5.8916a4.2489,4.2489,0,0,0,.7666,2.8164,2.5275,2.5275,0,0,0,3.8408.0049,4.1133,4.1133,0,0,0,.7764-2.7656,4.024,4.024,0,0,0-.7988-2.7158,2.472,2.472,0,0,0-1.9258-.9141,2.4,2.4,0,0,0-1.8838.9A3.9967,3.9967,0,0,0,520.4451,21.6281Z"/><path class="cls-2" d="M529.9012,15.08V13.1691h1.6621V15.08Zm0,11.6269V16.9h1.6621v9.8076Z"/><path class="cls-2" d="M534.0936,26.7072V16.9h1.496v1.3945a3.5255,3.5255,0,0,1,3.1211-1.6162,4.1019,4.1019,0,0,1,1.63.3184,2.5781,2.5781,0,0,1,1.1133.8359,3.2159,3.2159,0,0,1,.5166,1.2285,9.5135,9.5135,0,0,1,.0928,1.6163v6.03h-1.6621V20.7414a4.4915,4.4915,0,0,0-.1944-1.5195,1.5952,1.5952,0,0,0-.6884-.8028,2.1841,2.1841,0,0,0-1.1582-.3007,2.6973,2.6973,0,0,0-1.834.6748,3.3257,3.3257,0,0,0-.77,2.5576v5.3564Z"/><path class="cls-2" d="M551.327,23.549l1.7177.2119a4.1983,4.1983,0,0,1-1.5058,2.337,5.1,5.1,0,0,1-6.22-.4942,5.18,5.18,0,0,1-1.2607-3.7168,5.4187,5.4187,0,0,1,1.2744-3.8418,4.3157,4.3157,0,0,1,3.3067-1.3672,4.1928,4.1928,0,0,1,3.2138,1.3389,5.3222,5.3222,0,0,1,1.2461,3.7686c0,.0986-.0029.246-.0088.4433h-7.3144a3.7677,3.7677,0,0,0,.914,2.4746,2.7223,2.7223,0,0,0,2.0508.8584,2.5415,2.5415,0,0,0,1.5606-.4795A3.1943,3.1943,0,0,0,551.327,23.549Zm-5.4581-2.6875h5.4766a3.3272,3.3272,0,0,0-.6289-1.8564,2.5481,2.5481,0,0,0-2.0586-.96,2.6387,2.6387,0,0,0-1.9258.7666A3.0285,3.0285,0,0,0,545.8689,20.8615Z"/><path class="cls-2" d="M561.8455,23.549l1.7178.2119a4.1984,4.1984,0,0,1-1.5059,2.337,5.1,5.1,0,0,1-6.22-.4942,5.18,5.18,0,0,1-1.2607-3.7168,5.4187,5.4187,0,0,1,1.2744-3.8418,4.3155,4.3155,0,0,1,3.3066-1.3672,4.1932,4.1932,0,0,1,3.2139,1.3389,5.3226,5.3226,0,0,1,1.2461,3.7686c0,.0986-.003.246-.0088.4433h-7.3145a3.7673,3.7673,0,0,0,.9141,2.4746,2.722,2.722,0,0,0,2.0508.8584,2.5412,2.5412,0,0,0,1.5605-.4795A3.1929,3.1929,0,0,0,561.8455,23.549Zm-5.458-2.6875h5.4766a3.3279,3.3279,0,0,0-.6289-1.8564,2.5482,2.5482,0,0,0-2.0586-.96,2.6387,2.6387,0,0,0-1.9258.7666A3.0285,3.0285,0,0,0,556.3875,20.8615Z"/><path class="cls-2" d="M565.6316,26.7072V16.9h1.4961v1.4873a4.0552,4.0552,0,0,1,1.0567-1.376,1.8493,1.8493,0,0,1,1.0674-.333,3.2387,3.2387,0,0,1,1.708.5362l-.5723,1.542a2.3762,2.3762,0,0,0-1.2188-.36,1.5832,1.5832,0,0,0-.9794.3281,1.7763,1.7763,0,0,0-.6182.9092,6.4445,6.4445,0,0,0-.2774,1.94v5.1347Z"/><path class="cls-2" d="M571.9568,15.08V13.1691h1.6621V15.08Zm0,11.6269V16.9h1.6621v9.8076Z"/><path class="cls-2" d="M576.15,26.7072V16.9h1.4961v1.3945a3.5252,3.5252,0,0,1,3.1211-1.6162,4.1026,4.1026,0,0,1,1.63.3184,2.5771,2.5771,0,0,1,1.1132.8359,3.2159,3.2159,0,0,1,.5166,1.2285,9.5027,9.5027,0,0,1,.0928,1.6163v6.03h-1.6621V20.7414a4.4919,4.4919,0,0,0-.1943-1.5195,1.5949,1.5949,0,0,0-.6885-.8028,2.1839,2.1839,0,0,0-1.1582-.3007,2.6977,2.6977,0,0,0-1.834.6748,3.3257,3.3257,0,0,0-.77,2.5576v5.3564Z"/><path class="cls-2" d="M586.3641,27.52l1.6152.24a1.5425,1.5425,0,0,0,.5635,1.09,2.7721,2.7721,0,0,0,1.69.4619,2.97,2.97,0,0,0,1.7822-.4619,2.27,2.27,0,0,0,.85-1.293,10.6556,10.6556,0,0,0,.12-2.1328,3.42,3.42,0,0,1-2.7149,1.2832,3.7007,3.7007,0,0,1-3.1308-1.459,5.616,5.616,0,0,1-1.1084-3.5,6.5118,6.5118,0,0,1,.5078-2.5908,4.0634,4.0634,0,0,1,1.4736-1.833,3.9755,3.9755,0,0,1,2.2666-.6465,3.5174,3.5174,0,0,1,2.8633,1.4033V16.9h1.5332v8.4775a8.0428,8.0428,0,0,1-.4668,3.2461,3.4065,3.4065,0,0,1-1.4776,1.51,5.1128,5.1128,0,0,1-2.4892.5547,4.6941,4.6941,0,0,1-2.835-.79A2.67,2.67,0,0,1,586.3641,27.52Zm1.3759-5.8916a4.2489,4.2489,0,0,0,.7666,2.8164,2.5276,2.5276,0,0,0,3.8409.0049,4.1138,4.1138,0,0,0,.7763-2.7656,4.024,4.024,0,0,0-.7988-2.7158,2.472,2.472,0,0,0-1.9258-.9141,2.4,2.4,0,0,0-1.8838.9A3.9972,3.9972,0,0,0,587.74,21.6281Z"/></g><path class="cls-2" d="M76.3,27.5,61.1,55H5.1A5.1215,5.1215,0,0,1,0,49.9V5.1A5.1215,5.1215,0,0,1,5.1,0h56L76.3,27.5ZM28.5,39.9V15.3H24.4V33.4h-.1L13.1,15.3H8.6V39.9h4.1V21.8h.1L24,39.9Zm8.6,0V15.3H32.8V39.9Zm24-24.6H56.8v9.8H45.7V15.3H41.4V39.9h4.3V28.8H56.9V39.9h4.3l-.1-24.6Z"/><path class="cls-3" d="M64.9,55.1,80.1,27.6,64.9.1h3.8a7.0724,7.0724,0,0,1,5.6,3.3L87.7,27.5,74.3,51.7A7.0724,7.0724,0,0,1,68.7,55l-3.8.1Z"/><g class="cls-1"><path class="cls-3" d="M103.5555,45.3137l1.269.1758a5.2277,5.2277,0,0,1-1.7529,2.5126,4.245,4.245,0,0,1-2.584.85,3.66,3.66,0,0,1-2.77-1.0655,4.24,4.24,0,0,1-1.0234-3.0556A6.0891,6.0891,0,0,1,98.25,40.4465a4.4875,4.4875,0,0,1,3.4477-1.5108,3.642,3.642,0,0,1,2.4693.8174,3.2527,3.2527,0,0,1,1.0957,2.1983l-1.1973.11a2.5892,2.5892,0,0,0-.7817-1.5527,2.2447,2.2447,0,0,0-1.5274-.5137,3.3191,3.3191,0,0,0-2.8457,1.5635,5.44,5.44,0,0,0-.9419,3.1982,3.1919,3.1919,0,0,0,.7261,2.2569,2.465,2.465,0,0,0,1.8906.7783,2.7966,2.7966,0,0,0,1.7989-.6475A3.6614,3.6614,0,0,0,103.5555,45.3137Z"/><path class="cls-3" d="M105.5965,48.6887l1.4521-6.9473h1.0469l-.2944,1.42a4.805,4.805,0,0,1,1.05-1.19,1.7305,1.7305,0,0,1,1.05-.3867,2.0652,2.0652,0,0,1,.87.2558l-.4839,1.0987a1.1241,1.1241,0,0,0-.6738-.2227,1.826,1.826,0,0,0-1.2759.6934,5.2723,5.2723,0,0,0-1.0268,2.4922l-.5889,2.7871Z"/><path class="cls-3" d="M115.16,46.3273l1.15.1172a3.4814,3.4814,0,0,1-1.1406,1.6289,3.1482,3.1482,0,0,1-2.1289.7725,2.877,2.877,0,0,1-1.416-.3564,2.3447,2.3447,0,0,1-.9819-1.0372,3.4469,3.4469,0,0,1-.337-1.5507,4.9323,4.9323,0,0,1,.5269-2.2071,3.7563,3.7563,0,0,1,1.3643-1.59,3.3663,3.3663,0,0,1,1.8105-.52,2.6287,2.6287,0,0,1,1.9863.7724,2.9149,2.9149,0,0,1,.7422,2.1065,6.2761,6.2761,0,0,1-.0918,1.0469H111.53a2.8362,2.8362,0,0,0-.0254.3662,2.2,2.2,0,0,0,.4473,1.4883,1.4017,1.4017,0,0,0,1.0957.5126,2.1148,2.1148,0,0,0,1.1972-.3984A2.6079,2.6079,0,0,0,115.16,46.3273Zm-3.4414-1.7207h3.8985c.0058-.122.0078-.2089.0078-.2617a1.9167,1.9167,0,0,0-.4453-1.3633,1.4986,1.4986,0,0,0-1.1446-.4746,2.1111,2.1111,0,0,0-1.3847.5235A3.14,3.14,0,0,0,111.719,44.6066Z"/><path class="cls-3" d="M122.1927,47.8254a4.7144,4.7144,0,0,1-1.1846.7754,3.0472,3.0472,0,0,1-1.2168.2451,2.1407,2.1407,0,0,1-1.55-.5664,1.921,1.921,0,0,1-.5889-1.4483,1.9827,1.9827,0,0,1,.2647-1.03,2.0754,2.0754,0,0,1,.7031-.72,3.1186,3.1186,0,0,1,1.0733-.39,12.0424,12.0424,0,0,1,1.5146-.124,5.4151,5.4151,0,0,0,1.5986-.2354,3.0579,3.0579,0,0,0,.1377-.8047.7772.7772,0,0,0-.3008-.6474,1.9,1.9,0,0,0-1.2041-.3272,2.0921,2.0921,0,0,0-1.22.33,1.87,1.87,0,0,0-.69.9385l-1.1963-.1045a3.1284,3.1284,0,0,1,1.16-1.583,3.4483,3.4483,0,0,1,2.0058-.55,3.1319,3.1319,0,0,1,2.041.6152,1.4534,1.4534,0,0,1,.5752,1.19,6.0461,6.0461,0,0,1-.1631,1.2891l-.3867,1.7266a6.4769,6.4769,0,0,0-.1826,1.3408,4.5009,4.5009,0,0,0,.1436.9424h-1.1973A4.316,4.316,0,0,1,122.1927,47.8254Zm.4375-2.6563a2.7641,2.7641,0,0,1-.5332.15q-.2843.0528-.9512.1114a7.3061,7.3061,0,0,0-1.459.2324,1.2185,1.2185,0,0,0-.6406.4482,1.1531,1.1531,0,0,0-.2158.68,1.0713,1.0713,0,0,0,.3427.8184,1.3806,1.3806,0,0,0,.9786.32,2.31,2.31,0,0,0,1.9882-1.1778A5.0224,5.0224,0,0,0,122.63,45.1691Z"/><path class="cls-3" d="M127.7269,47.7268l-.1963.9687a3.2508,3.2508,0,0,1-.8243.1113,1.7138,1.7138,0,0,1-1.125-.3466.8818.8818,0,0,1-.3144-.7139,7.1694,7.1694,0,0,1,.17-1.0527l.8447-4.0362h-.9355l.1894-.916h.9356l.3594-1.707,1.3545-.8174-.53,2.5244h1.165l-.1963.916h-1.1582l-.8047,3.84a7.0989,7.0989,0,0,0-.15.8769.4115.4115,0,0,0,.1211.32.5763.5763,0,0,0,.3955.1114A2.8216,2.8216,0,0,0,127.7269,47.7268Z"/><path class="cls-3" d="M128.636,48.6887l1.4522-6.9473h1.1836L129.82,48.6887Zm1.7266-8.2491.2812-1.3408h1.1778L131.54,40.44Z"/><path class="cls-3" d="M131.6575,48.6887l1.4531-6.9473h1.0723l-.2549,1.21a5.712,5.712,0,0,1,1.3086-1.04,2.5975,2.5975,0,0,1,1.2422-.3271,1.846,1.846,0,0,1,1.3252.458,1.6115,1.6115,0,0,1,.4805,1.2236,6.8413,6.8413,0,0,1-.17,1.2168l-.8829,4.2061h-1.1845l.9228-4.4024a5.1008,5.1008,0,0,0,.1367-.9482.7214.7214,0,0,0-.2382-.5625.9939.9939,0,0,0-.6905-.2158,2.3243,2.3243,0,0,0-1.6191.6533,4.1863,4.1863,0,0,0-1.043,2.2441l-.6738,3.2315Z"/><path class="cls-3" d="M139.0433,49.3166l1.1963.1113a1.2177,1.2177,0,0,0,.0986.6084.7362.7362,0,0,0,.3535.3135,2.0253,2.0253,0,0,0,.83.1445,1.9178,1.9178,0,0,0,1.5439-.5566,4.23,4.23,0,0,0,.5694-1.6221l.1171-.5625a2.7372,2.7372,0,0,1-1.9619.9356,2.2929,2.2929,0,0,1-1.7627-.7754,3.1306,3.1306,0,0,1-.71-2.1944,4.2713,4.2713,0,0,1,.5595-2.1523,4.17,4.17,0,0,1,1.3311-1.4814,2.8821,2.8821,0,0,1,1.5889-.501,2.3118,2.3118,0,0,1,2.1064,1.2959l.2363-1.1387h1.085l-1.3994,6.7051a5.59,5.59,0,0,1-.6016,1.7236,2.5423,2.5423,0,0,1-1.0371.959,3.3208,3.3208,0,0,1-1.5342.34,4.312,4.312,0,0,1-1.4423-.2158,1.8223,1.8223,0,0,1-.9024-.6318,1.5919,1.5919,0,0,1-.2978-.9512A2.025,2.025,0,0,1,139.0433,49.3166Zm1.4775-3.7021a3.1658,3.1658,0,0,0,.1377,1.0722,1.6709,1.6709,0,0,0,.56.7686,1.3373,1.3373,0,0,0,.8076.2656,1.9909,1.9909,0,0,0,1.1582-.4092,2.83,2.83,0,0,0,.9316-1.2656,4.2449,4.2449,0,0,0,.3565-1.6357,1.9173,1.9173,0,0,0-.4737-1.3633,1.5457,1.5457,0,0,0-1.1748-.5078,1.67,1.67,0,0,0-.8369.2324,2.5148,2.5148,0,0,0-.7558.707,3.3646,3.3646,0,0,0-.5293,1.1348A4.1851,4.1851,0,0,0,140.5208,45.6145Z"/><path class="cls-3" d="M150.4183,48.6887l2.0088-9.59h2.97a7.9638,7.9638,0,0,1,1.2031.0655,2.9687,2.9687,0,0,1,1.083.39,1.8632,1.8632,0,0,1,.6836.7588,2.4488,2.4488,0,0,1-.1934,2.456,2.6718,2.6718,0,0,1-1.331.9161,2.2934,2.2934,0,0,1,1.1641.7685,1.9381,1.9381,0,0,1,.3867,1.2,2.8234,2.8234,0,0,1-.4551,1.5176,3.1106,3.1106,0,0,1-1.2031,1.1221,3.5275,3.5275,0,0,1-1.6719.3955Zm1.5117-1.086h2.1846a7.4528,7.4528,0,0,0,1.1708-.0586,2.5693,2.5693,0,0,0,.9874-.3564,1.7692,1.7692,0,0,0,.5957-.6641,1.8427,1.8427,0,0,0,.2158-.8632,1.2554,1.2554,0,0,0-.4219-1.0245,2.6359,2.6359,0,0,0-1.6064-.35h-2.4327Zm.9219-4.4091h1.9423a3.49,3.49,0,0,0,2.0059-.4444,1.5038,1.5038,0,0,0,.6113-1.2959,1.2681,1.2681,0,0,0-.1894-.6992,1.1068,1.1068,0,0,0-.5078-.4287,3.5131,3.5131,0,0,0-1.1934-.1338H153.48Z"/><path class="cls-3" d="M159.1722,48.6887l1.4521-6.9473h1.1836l-1.4521,6.9473Zm1.7265-8.2491.2813-1.3408h1.1777l-.2812,1.3408Z"/><path class="cls-3" d="M162.4026,46.0529A4.8528,4.8528,0,0,1,163.6,42.6838a3.3171,3.3171,0,0,1,2.59-1.1,2.7038,2.7038,0,0,1,2.0245.7851,2.9,2.9,0,0,1,.7695,2.12,5.1739,5.1739,0,0,1-.4844,2.2265,3.5978,3.5978,0,0,1-1.3769,1.58,3.5369,3.5369,0,0,1-1.8809.55,3.1492,3.1492,0,0,1-1.4756-.3467,2.3986,2.3986,0,0,1-1.0137-.9814A2.9819,2.9819,0,0,1,162.4026,46.0529Zm1.1836-.1181a2.11,2.11,0,0,0,.4717,1.4882,1.5614,1.5614,0,0,0,1.1963.5069,1.9627,1.9627,0,0,0,.7529-.1533,2.1913,2.1913,0,0,0,.6934-.4678,3.1639,3.1639,0,0,0,.5459-.7168,4.6863,4.6863,0,0,0,.5664-2.1094,2.0905,2.0905,0,0,0-.4746-1.4619,1.5477,1.5477,0,0,0-1.1944-.52,1.989,1.989,0,0,0-1.0136.2656,2.692,2.692,0,0,0-.8272.7744,3.4587,3.4587,0,0,0-.5429,1.1875A4.8947,4.8947,0,0,0,163.5862,45.9348Z"/><path class="cls-3" d="M169.638,48.6887l1.4521-6.9473h1.1836l-.2422,1.1445a4.7732,4.7732,0,0,1,1.1817-1.02,2.3446,2.3446,0,0,1,1.1279-.2812,1.6969,1.6969,0,0,1,1.083.3437,1.63,1.63,0,0,1,.5723.958,3.8742,3.8742,0,0,1,1.1152-.9775,2.51,2.51,0,0,1,1.2334-.3242,1.8362,1.8362,0,0,1,1.3047.4121,1.52,1.52,0,0,1,.4346,1.1582,6.0637,6.0637,0,0,1-.15,1.06l-.9356,4.4746h-1.1836l.9551-4.5918a4.2879,4.2879,0,0,0,.124-.8047.6914.6914,0,0,0-.2158-.5371.871.871,0,0,0-.6084-.1953,2.13,2.13,0,0,0-1.0791.32,2.3173,2.3173,0,0,0-.8535.84,5.6221,5.6221,0,0,0-.5332,1.6l-.707,3.3692h-1.1836l.9814-4.69a3.7114,3.7114,0,0,0,.1045-.68.7374.7374,0,0,0-.2129-.55.7536.7536,0,0,0-.5527-.2089,2.1114,2.1114,0,0,0-1.0566.32,2.5227,2.5227,0,0,0-.8995.8926,5.3354,5.3354,0,0,0-.5683,1.6318l-.6875,3.2842Z"/><path class="cls-3" d="M185.9065,46.3273l1.1514.1172a3.4841,3.4841,0,0,1-1.1416,1.6289,3.1464,3.1464,0,0,1-2.1289.7725,2.88,2.88,0,0,1-1.416-.3564,2.3471,2.3471,0,0,1-.9815-1.0372,3.4482,3.4482,0,0,1-.3369-1.5507,4.945,4.945,0,0,1,.5264-2.2071,3.7631,3.7631,0,0,1,1.3643-1.59,3.37,3.37,0,0,1,1.8115-.52,2.6264,2.6264,0,0,1,1.9853.7724,2.9116,2.9116,0,0,1,.7432,2.1065,6.2868,6.2868,0,0,1-.0918,1.0469h-5.1152a2.85,2.85,0,0,0-.0264.3662,2.2,2.2,0,0,0,.4482,1.4883,1.402,1.402,0,0,0,1.0957.5126,2.1174,2.1174,0,0,0,1.1973-.3984A2.6061,2.6061,0,0,0,185.9065,46.3273Zm-3.44-1.7207h3.8985c.0048-.122.0068-.2089.0068-.2617a1.9171,1.9171,0,0,0-.4453-1.3633,1.4971,1.4971,0,0,0-1.1446-.4746,2.1064,2.1064,0,0,0-1.3837.5235A3.1393,3.1393,0,0,0,182.4661,44.6066Z"/><path class="cls-3" d="M192.9388,47.6809a2.8578,2.8578,0,0,1-2.12,1.165,2.12,2.12,0,0,1-1.6446-.73A3.0588,3.0588,0,0,1,188.5159,46a5.1554,5.1554,0,0,1,.52-2.3193,3.9413,3.9413,0,0,1,1.3018-1.5733,2.8006,2.8006,0,0,1,1.5664-.5234,2.105,2.105,0,0,1,1.956,1.25l.7852-3.7354h1.1777l-2.0019,9.59h-1.0928Zm-3.2451-1.9034a3.611,3.611,0,0,0,.1445,1.1446,1.4987,1.4987,0,0,0,.49.6972,1.2853,1.2853,0,0,0,.8311.2774,1.8513,1.8513,0,0,0,1.458-.8369,4.2975,4.2975,0,0,0,.8769-2.7471,1.8191,1.8191,0,0,0-.4316-1.2891,1.421,1.421,0,0,0-1.0859-.4638,1.5969,1.5969,0,0,0-.7754.1894,2.2549,2.2549,0,0,0-.6934.6445,4.0578,4.0578,0,0,0-.5791,1.1543A3.9506,3.9506,0,0,0,189.6937,45.7775Z"/><path class="cls-3" d="M195.66,48.6887l1.4522-6.9473h1.1836l-1.4522,6.9473ZM197.387,40.44l.2813-1.3408h1.1777l-.2813,1.3408Z"/><path class="cls-3" d="M203.4769,46.1574l1.1845.124a3.9791,3.9791,0,0,1-1.2656,1.9327,2.9848,2.9848,0,0,1-1.8682.6318,2.4293,2.4293,0,0,1-1.8349-.7324,2.8378,2.8378,0,0,1-.7031-2.0479,5.8243,5.8243,0,0,1,.4521-2.2373,3.6136,3.6136,0,0,1,1.291-1.6709,3.3317,3.3317,0,0,1,1.92-.5732,2.4471,2.4471,0,0,1,1.7735.6318,2.2177,2.2177,0,0,1,.6543,1.6709l-1.1651.0791a1.41,1.41,0,0,0-.3828-1.0342,1.3461,1.3461,0,0,0-.99-.372,1.8318,1.8318,0,0,0-1.2363.4511,2.9639,2.9639,0,0,0-.8213,1.37,5.74,5.74,0,0,0-.2979,1.7695,1.9642,1.9642,0,0,0,.3926,1.334,1.24,1.24,0,0,0,.9678.4453,1.7042,1.7042,0,0,0,1.1025-.4385A2.8684,2.8684,0,0,0,203.4769,46.1574Z"/><path class="cls-3" d="M210.0647,47.8254a4.7123,4.7123,0,0,1-1.1845.7754,3.0472,3.0472,0,0,1-1.2168.2451,2.1407,2.1407,0,0,1-1.55-.5664,1.921,1.921,0,0,1-.5889-1.4483,1.9827,1.9827,0,0,1,.2647-1.03,2.0754,2.0754,0,0,1,.7031-.72,3.1188,3.1188,0,0,1,1.0732-.39,12.0426,12.0426,0,0,1,1.5147-.124,5.4163,5.4163,0,0,0,1.5986-.2354,3.0579,3.0579,0,0,0,.1377-.8047.7772.7772,0,0,0-.3008-.6474,1.9,1.9,0,0,0-1.2041-.3272,2.0918,2.0918,0,0,0-1.22.33,1.87,1.87,0,0,0-.69.9385l-1.1963-.1045a3.1282,3.1282,0,0,1,1.16-1.583,3.4489,3.4489,0,0,1,2.0059-.55,3.1321,3.1321,0,0,1,2.041.6152,1.4534,1.4534,0,0,1,.5752,1.19,6.0461,6.0461,0,0,1-.1631,1.2891l-.3867,1.7266a6.47,6.47,0,0,0-.1826,1.3408,4.4993,4.4993,0,0,0,.1435.9424h-1.1972A4.308,4.308,0,0,1,210.0647,47.8254Zm.4375-2.6563a2.76,2.76,0,0,1-.5332.15q-.2841.0528-.9511.1114a7.3061,7.3061,0,0,0-1.459.2324,1.2185,1.2185,0,0,0-.6406.4482,1.1525,1.1525,0,0,0-.2159.68,1.0714,1.0714,0,0,0,.3428.8184,1.3805,1.3805,0,0,0,.9785.32,2.31,2.31,0,0,0,1.9883-1.1778A5.02,5.02,0,0,0,210.5022,45.1691Z"/><path class="cls-3" d="M212.74,48.6887l2.0009-9.59h1.1846l-2.002,9.59Z"/><path class="cls-3" d="M222.1272,48.6887,223.9,40.1916h-3.1465l.23-1.0928h7.5488l-.2294,1.0928h-3.12L223.41,48.6887Z"/><path class="cls-3" d="M231.5853,46.3273l1.1513.1172a3.4841,3.4841,0,0,1-1.1416,1.6289,3.1464,3.1464,0,0,1-2.1289.7725,2.88,2.88,0,0,1-1.416-.3564,2.3463,2.3463,0,0,1-.9814-1.0372,3.4469,3.4469,0,0,1-.337-1.5507,4.945,4.945,0,0,1,.5264-2.2071,3.7631,3.7631,0,0,1,1.3643-1.59,3.37,3.37,0,0,1,1.8115-.52,2.6264,2.6264,0,0,1,1.9853.7724,2.9112,2.9112,0,0,1,.7432,2.1065,6.2761,6.2761,0,0,1-.0918,1.0469h-5.1152a2.85,2.85,0,0,0-.0264.3662,2.2,2.2,0,0,0,.4482,1.4883,1.402,1.402,0,0,0,1.0957.5126,2.1174,2.1174,0,0,0,1.1973-.3984A2.607,2.607,0,0,0,231.5853,46.3273Zm-3.44-1.7207h3.8985c.0048-.122.0068-.2089.0068-.2617a1.9167,1.9167,0,0,0-.4453-1.3633,1.4969,1.4969,0,0,0-1.1445-.4746,2.1067,2.1067,0,0,0-1.3838.5235A3.1393,3.1393,0,0,0,228.1448,44.6066Z"/><path class="cls-3" d="M238.7288,46.1574l1.1846.124a3.9805,3.9805,0,0,1-1.2656,1.9327,2.985,2.985,0,0,1-1.8682.6318,2.43,2.43,0,0,1-1.835-.7324,2.8382,2.8382,0,0,1-.7031-2.0479,5.8245,5.8245,0,0,1,.4522-2.2373,3.613,3.613,0,0,1,1.291-1.6709,3.3312,3.3312,0,0,1,1.92-.5732,2.4469,2.4469,0,0,1,1.7734.6318,2.2173,2.2173,0,0,1,.6543,1.6709l-1.165.0791a1.4109,1.4109,0,0,0-.3828-1.0342,1.3463,1.3463,0,0,0-.99-.372,1.832,1.832,0,0,0-1.2363.4511,2.9656,2.9656,0,0,0-.8213,1.37,5.7431,5.7431,0,0,0-.2978,1.7695,1.9642,1.9642,0,0,0,.3925,1.334,1.24,1.24,0,0,0,.9678.4453,1.7044,1.7044,0,0,0,1.1026-.4385A2.8691,2.8691,0,0,0,238.7288,46.1574Z"/><path class="cls-3" d="M240.6321,48.6887l2.002-9.59h1.1846l-.7657,3.6826a5.0086,5.0086,0,0,1,1.23-.9189,2.6382,2.6382,0,0,1,1.1709-.2783,1.8672,1.8672,0,0,1,1.3408.4551,1.58,1.58,0,0,1,.4776,1.2,7.817,7.817,0,0,1-.209,1.3476l-.8565,4.1016h-1.1845l.8828-4.2061a8.063,8.063,0,0,0,.19-1.1514.7215.7215,0,0,0-.2353-.5556.9706.9706,0,0,0-.6807-.2158,2.48,2.48,0,0,0-2.1357,1.2588,7.0651,7.0651,0,0,0-.6055,1.8867l-.6211,2.9834Z"/><path class="cls-3" d="M248.0833,48.6887l1.4531-6.9473h1.0723l-.2549,1.21a5.712,5.712,0,0,1,1.3086-1.04,2.5972,2.5972,0,0,1,1.2422-.3271,1.846,1.846,0,0,1,1.3252.458,1.6115,1.6115,0,0,1,.48,1.2236,6.8343,6.8343,0,0,1-.17,1.2168l-.8828,4.2061h-1.1846l.9229-4.4024a5.1008,5.1008,0,0,0,.1367-.9482.7212.7212,0,0,0-.2383-.5625.9934.9934,0,0,0-.69-.2158,2.3243,2.3243,0,0,0-1.6191.6533,4.1863,4.1863,0,0,0-1.043,2.2441l-.6738,3.2315Z"/><path class="cls-3" d="M255.7435,46.0529a4.8528,4.8528,0,0,1,1.1972-3.3691,3.3172,3.3172,0,0,1,2.59-1.1,2.7034,2.7034,0,0,1,2.0244.7851,2.9,2.9,0,0,1,.7695,2.12,5.1739,5.1739,0,0,1-.4844,2.2265,3.5978,3.5978,0,0,1-1.3769,1.58,3.5369,3.5369,0,0,1-1.8809.55,3.1492,3.1492,0,0,1-1.4756-.3467,2.3989,2.3989,0,0,1-1.0136-.9814A2.9819,2.9819,0,0,1,255.7435,46.0529Zm1.1836-.1181a2.11,2.11,0,0,0,.4716,1.4882,1.5614,1.5614,0,0,0,1.1963.5069,1.9627,1.9627,0,0,0,.7529-.1533,2.1913,2.1913,0,0,0,.6934-.4678,3.1639,3.1639,0,0,0,.5459-.7168,4.22,4.22,0,0,0,.3633-.8662,4.1768,4.1768,0,0,0,.2031-1.2432,2.0905,2.0905,0,0,0-.4746-1.4619,1.5476,1.5476,0,0,0-1.1943-.52,1.99,1.99,0,0,0-1.0137.2656,2.692,2.692,0,0,0-.8272.7744,3.4587,3.4587,0,0,0-.5429,1.1875A4.8989,4.8989,0,0,0,256.9271,45.9348Z"/><path class="cls-3" d="M262.8938,48.6887l2.001-9.59h1.1846l-2.002,9.59Z"/><path class="cls-3" d="M266.1712,46.0529a4.8524,4.8524,0,0,1,1.1973-3.3691,3.3169,3.3169,0,0,1,2.59-1.1,2.7034,2.7034,0,0,1,2.0244.7851,2.9,2.9,0,0,1,.7695,2.12,5.1753,5.1753,0,0,1-.4843,2.2265,3.5986,3.5986,0,0,1-1.377,1.58,3.5366,3.5366,0,0,1-1.8808.55,3.1486,3.1486,0,0,1-1.4756-.3467,2.3986,2.3986,0,0,1-1.0137-.9814A2.9819,2.9819,0,0,1,266.1712,46.0529Zm1.1836-.1181a2.11,2.11,0,0,0,.4717,1.4882,1.5613,1.5613,0,0,0,1.1963.5069,1.9627,1.9627,0,0,0,.7529-.1533,2.1909,2.1909,0,0,0,.6933-.4678,3.161,3.161,0,0,0,.5459-.7168,4.22,4.22,0,0,0,.3633-.8662,4.1768,4.1768,0,0,0,.2031-1.2432,2.0905,2.0905,0,0,0-.4746-1.4619,1.5475,1.5475,0,0,0-1.1943-.52,1.99,1.99,0,0,0-1.0137.2656,2.6929,2.6929,0,0,0-.8271.7744,3.457,3.457,0,0,0-.543,1.1875A4.8989,4.8989,0,0,0,267.3548,45.9348Z"/><path class="cls-3" d="M273.347,49.3166l1.1963.1113a1.2177,1.2177,0,0,0,.0986.6084.7362.7362,0,0,0,.3535.3135,2.0253,2.0253,0,0,0,.83.1445,1.9177,1.9177,0,0,0,1.5439-.5566,4.23,4.23,0,0,0,.5694-1.6221l.1172-.5625a2.7376,2.7376,0,0,1-1.962.9356,2.2929,2.2929,0,0,1-1.7627-.7754,3.1306,3.1306,0,0,1-.71-2.1944,4.27,4.27,0,0,1,.56-2.1523,4.1693,4.1693,0,0,1,1.331-1.4814,2.8826,2.8826,0,0,1,1.5889-.501,2.3118,2.3118,0,0,1,2.1064,1.2959l.2364-1.1387h1.0849l-1.3994,6.7051a5.5876,5.5876,0,0,1-.6016,1.7236,2.5423,2.5423,0,0,1-1.0371.959,3.3208,3.3208,0,0,1-1.5342.34,4.312,4.312,0,0,1-1.4423-.2158,1.8223,1.8223,0,0,1-.9024-.6318,1.5919,1.5919,0,0,1-.2978-.9512A2.025,2.025,0,0,1,273.347,49.3166Zm1.4775-3.7021a3.1658,3.1658,0,0,0,.1377,1.0722,1.6709,1.6709,0,0,0,.56.7686,1.3373,1.3373,0,0,0,.8076.2656,1.9909,1.9909,0,0,0,1.1582-.4092,2.83,2.83,0,0,0,.9316-1.2656,4.2449,4.2449,0,0,0,.3565-1.6357,1.9177,1.9177,0,0,0-.4736-1.3633,1.546,1.546,0,0,0-1.1749-.5078,1.67,1.67,0,0,0-.8369.2324,2.5148,2.5148,0,0,0-.7558.707,3.3646,3.3646,0,0,0-.5293,1.1348A4.19,4.19,0,0,0,274.8245,45.6145Z"/><path class="cls-3" d="M280.8177,48.6887l1.4521-6.9473h1.1836l-1.4521,6.9473Zm1.7265-8.2491.2813-1.3408h1.1777L283.722,40.44Z"/><path class="cls-3" d="M288.9417,46.3273l1.1514.1172a3.4841,3.4841,0,0,1-1.1416,1.6289,3.1466,3.1466,0,0,1-2.1289.7725,2.88,2.88,0,0,1-1.4161-.3564,2.3469,2.3469,0,0,1-.9814-1.0372,3.4482,3.4482,0,0,1-.3369-1.5507,4.945,4.945,0,0,1,.5264-2.2071,3.7623,3.7623,0,0,1,1.3642-1.59,3.37,3.37,0,0,1,1.8115-.52,2.6267,2.6267,0,0,1,1.9854.7724,2.9116,2.9116,0,0,1,.7431,2.1065,6.2864,6.2864,0,0,1-.0917,1.0469h-5.1153a2.85,2.85,0,0,0-.0264.3662,2.2,2.2,0,0,0,.4483,1.4883,1.4018,1.4018,0,0,0,1.0957.5126,2.1174,2.1174,0,0,0,1.1973-.3984A2.6068,2.6068,0,0,0,288.9417,46.3273Zm-3.44-1.7207H289.4c.0049-.122.0068-.2089.0068-.2617a1.9167,1.9167,0,0,0-.4453-1.3633,1.4969,1.4969,0,0,0-1.1445-.4746,2.1067,2.1067,0,0,0-1.3838.5235A3.1392,3.1392,0,0,0,285.5013,44.6066Z"/><path class="cls-3" d="M291.4007,46.3137l1.1846-.0713a2.1576,2.1576,0,0,0,.1572.87,1.25,1.25,0,0,0,.5781.5889,2.0375,2.0375,0,0,0,.9854.2285,1.8552,1.8552,0,0,0,1.1767-.3145.9242.9242,0,0,0,.3926-.7383.8835.8835,0,0,0-.2354-.583,3.735,3.735,0,0,0-1.1806-.6767,11.3937,11.3937,0,0,1-1.2-.5654,1.9459,1.9459,0,0,1-.6612-.6319,1.5622,1.5622,0,0,1-.2226-.834,1.838,1.838,0,0,1,.6543-1.4131,2.6434,2.6434,0,0,1,1.832-.5888,2.9189,2.9189,0,0,1,1.9922.6054,2.1065,2.1065,0,0,1,.709,1.5928l-1.1572.0791a1.3335,1.3335,0,0,0-.4453-.9951,1.742,1.742,0,0,0-1.1836-.3662,1.4577,1.4577,0,0,0-.9551.2812.7972.7972,0,0,0-.3408.6084.7383.7383,0,0,0,.2949.5762,4.9767,4.9767,0,0,0,1.0137.5235,6.7928,6.7928,0,0,1,1.7138.9287,1.7651,1.7651,0,0,1,.5625,1.3213,1.8584,1.8584,0,0,1-.3174,1.0136,2.1756,2.1756,0,0,1-.9677.7949,3.6617,3.6617,0,0,1-1.5342.2979A3.4559,3.4559,0,0,1,292.2,48.25,2.1085,2.1085,0,0,1,291.4007,46.3137Z"/><path class="cls-3" d="M304.4778,47.7268l-.1963.9687a3.2507,3.2507,0,0,1-.8242.1113,1.7138,1.7138,0,0,1-1.125-.3466.8815.8815,0,0,1-.3144-.7139,7.1694,7.1694,0,0,1,.17-1.0527l.8447-4.0362h-.9355l.1894-.916h.9356l.3593-1.707,1.355-.8174-.5307,2.5244h1.1655l-.1963.916h-1.1587l-.8047,3.84a7.0875,7.0875,0,0,0-.15.8769.4118.4118,0,0,0,.1211.32.5767.5767,0,0,0,.3955.1114A2.82,2.82,0,0,0,304.4778,47.7268Z"/><path class="cls-3" d="M305.6424,46.0529a4.8528,4.8528,0,0,1,1.1972-3.3691,3.3173,3.3173,0,0,1,2.59-1.1,2.7034,2.7034,0,0,1,2.0244.7851,2.9,2.9,0,0,1,.77,2.12,5.1753,5.1753,0,0,1-.4843,2.2265,3.5986,3.5986,0,0,1-1.377,1.58,3.5367,3.5367,0,0,1-1.8809.55,3.1485,3.1485,0,0,1-1.4755-.3467,2.3986,2.3986,0,0,1-1.0137-.9814A2.9819,2.9819,0,0,1,305.6424,46.0529Zm1.1836-.1181a2.11,2.11,0,0,0,.4717,1.4882,1.5611,1.5611,0,0,0,1.1962.5069,1.9628,1.9628,0,0,0,.753-.1533,2.1909,2.1909,0,0,0,.6933-.4678,3.1639,3.1639,0,0,0,.5459-.7168,4.22,4.22,0,0,0,.3633-.8662,4.1768,4.1768,0,0,0,.2031-1.2432,2.0905,2.0905,0,0,0-.4746-1.4619,1.5475,1.5475,0,0,0-1.1943-.52,1.99,1.99,0,0,0-1.0137.2656,2.6929,2.6929,0,0,0-.8271.7744A3.457,3.457,0,0,0,307,44.7277,4.8989,4.8989,0,0,0,306.826,45.9348Z"/><path class="cls-3" d="M316.9266,48.6887l2.0078-9.59H320.21l-2.001,9.59Z"/><path class="cls-3" d="M320.3221,48.6887l1.4521-6.9473h1.1836l-.2422,1.1445a4.7732,4.7732,0,0,1,1.1817-1.02,2.3444,2.3444,0,0,1,1.1279-.2812,1.6971,1.6971,0,0,1,1.083.3437,1.63,1.63,0,0,1,.5723.958,3.8742,3.8742,0,0,1,1.1152-.9775,2.51,2.51,0,0,1,1.2334-.3242,1.8364,1.8364,0,0,1,1.3047.4121,1.52,1.52,0,0,1,.4346,1.1582,6.0637,6.0637,0,0,1-.15,1.06l-.9356,4.4746h-1.1836l.9551-4.5918a4.2879,4.2879,0,0,0,.124-.8047.6914.6914,0,0,0-.2158-.5371.871.871,0,0,0-.6084-.1953,2.13,2.13,0,0,0-1.0791.32,2.3165,2.3165,0,0,0-.8535.84,5.619,5.619,0,0,0-.5332,1.6l-.707,3.3692h-1.1836l.9814-4.69a3.72,3.72,0,0,0,.1045-.68.7374.7374,0,0,0-.2129-.55.7537.7537,0,0,0-.5527-.2089,2.1118,2.1118,0,0,0-1.0567.32,2.5232,2.5232,0,0,0-.8994.8926,5.3354,5.3354,0,0,0-.5683,1.6318l-.6875,3.2842Z"/><path class="cls-3" d="M330.9051,51.3508l2.0088-9.6094h1.0918l-.2022.9688a4.3346,4.3346,0,0,1,1.0889-.88,2.2,2.2,0,0,1,1.0176-.2461,2.1289,2.1289,0,0,1,1.6484.7236,2.9838,2.9838,0,0,1,.6543,2.07,5.2418,5.2418,0,0,1-.36,1.9785,4.4222,4.4222,0,0,1-.8828,1.4356,3.7274,3.7274,0,0,1-1.0595.7988,2.54,2.54,0,0,1-1.1.2549,2.1213,2.1213,0,0,1-1.9356-1.27l-.7852,3.7744Zm2.3418-5.501a3.5379,3.5379,0,0,0,.1113,1.0791,1.4707,1.4707,0,0,0,1.4.9482A1.8653,1.8653,0,0,0,336.407,46.73a4.8413,4.8413,0,0,0,.628-2.3457,2.0024,2.0024,0,0,0-.4219-1.3633,1.3425,1.3425,0,0,0-1.05-.4814,1.5659,1.5659,0,0,0-.8379.2392,2.4893,2.4893,0,0,0-.7158.7129,4.2586,4.2586,0,0,0-.5469,1.1611A4.0908,4.0908,0,0,0,333.2469,45.85Z"/><path class="cls-3" d="M338.9383,48.6887l1.4531-6.9473h1.0459l-.2939,1.42a4.795,4.795,0,0,1,1.05-1.19,1.7312,1.7312,0,0,1,1.05-.3867,2.0672,2.0672,0,0,1,.87.2558l-.4844,1.0987a1.1241,1.1241,0,0,0-.6738-.2227,1.8269,1.8269,0,0,0-1.2754.6934,5.2726,5.2726,0,0,0-1.0264,2.4922l-.5888,2.7871Z"/><path class="cls-3" d="M343.6092,46.0529a4.8528,4.8528,0,0,1,1.1972-3.3691,3.3172,3.3172,0,0,1,2.59-1.1,2.7034,2.7034,0,0,1,2.0244.7851,2.9,2.9,0,0,1,.7695,2.12,5.1753,5.1753,0,0,1-.4843,2.2265,3.5986,3.5986,0,0,1-1.377,1.58,3.5369,3.5369,0,0,1-1.8809.55,3.1485,3.1485,0,0,1-1.4755-.3467,2.3986,2.3986,0,0,1-1.0137-.9814A2.9819,2.9819,0,0,1,343.6092,46.0529Zm1.1836-.1181a2.11,2.11,0,0,0,.4717,1.4882,1.5611,1.5611,0,0,0,1.1962.5069,1.9632,1.9632,0,0,0,.753-.1533,2.1909,2.1909,0,0,0,.6933-.4678,3.1639,3.1639,0,0,0,.5459-.7168,4.22,4.22,0,0,0,.3633-.8662,4.1768,4.1768,0,0,0,.2031-1.2432,2.0905,2.0905,0,0,0-.4746-1.4619,1.5475,1.5475,0,0,0-1.1943-.52,1.99,1.99,0,0,0-1.0137.2656,2.6929,2.6929,0,0,0-.8271.7744,3.457,3.457,0,0,0-.543,1.1875A4.8989,4.8989,0,0,0,344.7928,45.9348Z"/><path class="cls-3" d="M352.6043,48.6887l-1.1387-6.9473h1.1514l.5957,3.8272q.0981.6283.2422,2.0468.34-.7383.8691-1.6933l2.3223-4.1807h1.25l-3.9776,6.9473Z"/><path class="cls-3" d="M362.6512,46.3273l1.1513.1172a3.4841,3.4841,0,0,1-1.1416,1.6289,3.1464,3.1464,0,0,1-2.1289.7725,2.88,2.88,0,0,1-1.416-.3564,2.3463,2.3463,0,0,1-.9814-1.0372,3.4482,3.4482,0,0,1-.3369-1.5507,4.9449,4.9449,0,0,1,.5263-2.2071,3.7631,3.7631,0,0,1,1.3643-1.59,3.37,3.37,0,0,1,1.8115-.52,2.6268,2.6268,0,0,1,1.9854.7724,2.9116,2.9116,0,0,1,.7431,2.1065,6.2761,6.2761,0,0,1-.0918,1.0469h-5.1152a2.85,2.85,0,0,0-.0264.3662,2.2,2.2,0,0,0,.4483,1.4883,1.4017,1.4017,0,0,0,1.0957.5126,2.1171,2.1171,0,0,0,1.1972-.3984A2.607,2.607,0,0,0,362.6512,46.3273Zm-3.4405-1.7207h3.8985c.0049-.122.0068-.2089.0068-.2617a1.9167,1.9167,0,0,0-.4453-1.3633,1.4969,1.4969,0,0,0-1.1445-.4746,2.1067,2.1067,0,0,0-1.3838.5235A3.14,3.14,0,0,0,359.2107,44.6066Z"/><path class="cls-3" d="M368.84,48.6887l2.0088-9.59h1.2754l-.831,3.9834h4.9717l.831-3.9834h1.2813l-2.001,9.59h-1.2822l.9414-4.52H371.07l-.9482,4.52Z"/><path class="cls-3" d="M383.4988,46.3273l1.1514.1172a3.4841,3.4841,0,0,1-1.1416,1.6289,3.1464,3.1464,0,0,1-2.1289.7725,2.88,2.88,0,0,1-1.416-.3564,2.3465,2.3465,0,0,1-.9815-1.0372,3.4482,3.4482,0,0,1-.3369-1.5507,4.945,4.945,0,0,1,.5264-2.2071,3.7623,3.7623,0,0,1,1.3642-1.59,3.37,3.37,0,0,1,1.8116-.52,2.6264,2.6264,0,0,1,1.9853.7724,2.9116,2.9116,0,0,1,.7432,2.1065,6.2868,6.2868,0,0,1-.0918,1.0469h-5.1153a2.8669,2.8669,0,0,0-.0263.3662,2.2,2.2,0,0,0,.4482,1.4883,1.4018,1.4018,0,0,0,1.0957.5126,2.1174,2.1174,0,0,0,1.1973-.3984A2.6061,2.6061,0,0,0,383.4988,46.3273Zm-3.44-1.7207h3.8984c.0049-.122.0069-.2089.0069-.2617a1.9171,1.9171,0,0,0-.4453-1.3633,1.4971,1.4971,0,0,0-1.1446-.4746,2.1069,2.1069,0,0,0-1.3838.5235A3.14,3.14,0,0,0,380.0584,44.6066Z"/><path class="cls-3" d="M390.532,47.8254a4.714,4.714,0,0,1-1.1845.7754,3.0472,3.0472,0,0,1-1.2168.2451,2.14,2.14,0,0,1-1.55-.5664,1.921,1.921,0,0,1-.5889-1.4483,1.9836,1.9836,0,0,1,.2646-1.03,2.0765,2.0765,0,0,1,.7032-.72,3.1188,3.1188,0,0,1,1.0732-.39,12.0426,12.0426,0,0,1,1.5147-.124,5.4163,5.4163,0,0,0,1.5986-.2354,3.0579,3.0579,0,0,0,.1377-.8047.7772.7772,0,0,0-.3008-.6474,1.9,1.9,0,0,0-1.2041-.3272,2.0918,2.0918,0,0,0-1.22.33,1.8712,1.8712,0,0,0-.69.9385l-1.1962-.1045a3.1282,3.1282,0,0,1,1.16-1.583,3.4489,3.4489,0,0,1,2.0059-.55,3.1321,3.1321,0,0,1,2.041.6152,1.4534,1.4534,0,0,1,.5752,1.19,6.0461,6.0461,0,0,1-.1631,1.2891l-.3867,1.7266a6.47,6.47,0,0,0-.1826,1.3408,4.4993,4.4993,0,0,0,.1435.9424h-1.1973A4.316,4.316,0,0,1,390.532,47.8254Zm.4375-2.6563a2.76,2.76,0,0,1-.5332.15q-.2841.0528-.9511.1114a7.3061,7.3061,0,0,0-1.459.2324,1.2191,1.2191,0,0,0-.6407.4482,1.1531,1.1531,0,0,0-.2158.68,1.0714,1.0714,0,0,0,.3428.8184,1.3805,1.3805,0,0,0,.9785.32,2.31,2.31,0,0,0,1.9883-1.1778A5.0226,5.0226,0,0,0,390.97,45.1691Z"/><path class="cls-3" d="M393.2068,48.6887l2.001-9.59h1.1846l-2.002,9.59Z"/><path class="cls-3" d="M399.0418,47.7268l-.1963.9687a3.2507,3.2507,0,0,1-.8242.1113,1.7138,1.7138,0,0,1-1.125-.3466.8815.8815,0,0,1-.3145-.7139,7.1753,7.1753,0,0,1,.17-1.0527l.8447-4.0362h-.9356l.1895-.916h.9355l.3594-1.707L399.5,39.217l-.53,2.5244h1.1651l-.1963.916H398.78l-.8047,3.84a7.0875,7.0875,0,0,0-.15.8769.4115.4115,0,0,0,.1211.32.5765.5765,0,0,0,.3955.1114A2.8216,2.8216,0,0,0,399.0418,47.7268Z"/><path class="cls-3" d="M399.9969,48.6887l2.0019-9.59h1.1846l-.7656,3.6826a5.0068,5.0068,0,0,1,1.2295-.9189,2.6376,2.6376,0,0,1,1.1709-.2783,1.8675,1.8675,0,0,1,1.3408.4551,1.58,1.58,0,0,1,.4775,1.2,7.8068,7.8068,0,0,1-.209,1.3476l-.8564,4.1016h-1.1846l.8828-4.2061a8.0539,8.0539,0,0,0,.19-1.1514.7213.7213,0,0,0-.2354-.5556.97.97,0,0,0-.6807-.2158,2.48,2.48,0,0,0-2.1357,1.2588,7.0651,7.0651,0,0,0-.6055,1.8867l-.6211,2.9834Z"/></g></g></g></svg>