<?xml version="1.0" encoding="utf-8"?>
<!-- Generator: Adobe Illustrator 27.7.0, SVG Export Plug-In . SVG Version: 6.00 Build 0)  -->
<svg version="1.1" id="레이어_1" xmlns="http://www.w3.org/2000/svg" xmlns:xlink="http://www.w3.org/1999/xlink" x="0px"
	 y="0px" viewBox="0 0 1000 1000" style="enable-background:new 0 0 1000 1000;" xml:space="preserve">
<g>
	<path d="M268.97,687.14c-76.8,0-102-37.2-127.2-37.2c-12.6,0-19.8,7.2-29.4,31.2h-34.2v-158.4h32.4
		c22.8,55.2,70.8,124.2,151.8,124.2c51.6,0,84.6-22.8,84.6-68.4c0-46.2-28.2-80.4-118.2-105.6c-92.4-25.8-142.2-73.2-142.2-139.8
		c0-73.8,54.6-141.6,162-141.6c73.2,0,93.6,37.2,118.8,37.2c12.6,0,19.8-7.2,29.4-31.2h34.2v152.4h-32.4
		c-27.6-52.8-68.4-118.2-149.4-118.2c-40.2,0-60.6,28.2-60.6,66c0,46.8,24,72,108.6,97.2c102.6,30.6,154.8,70.8,154.8,145.2
		C451.97,622.34,394.37,687.14,268.97,687.14z"/>
</g>
<g>
	<path d="M430.21,799.24v-34.2c43.2-7.8,58.8-18,58.8-54.6v-306c0-36.6-15.6-46.8-58.8-54.6v-34.2h222v34.2
		c-43.2,7.8-58.8,18-58.8,54.6v160.2l172.2-176.4c18-18.6,14.4-37.8-35.4-37.8v-34.8h186v34.8c-44.4,4.8-72,14.4-97.2,40.2l-123,126
		l144,193.8c22.2,30,45,48.6,82.2,54.6v34.2h-216v-34.2c37.8-2.4,42-13.2,21-42.6l-98.4-136.8l-35.4,36v88.8
		c0,36.6,15.6,46.8,58.8,54.6v34.2H430.21z"/>
</g>
<g>
</g>
<g>
</g>
<g>
</g>
<g>
</g>
</svg>
